# xmcd
#
# Track frame offsets:
#	150
#	18250
#	26492
#	37813
#	69732
#	83950
#	96414
#	105510
#	122498
#	134866
#	150147
#	161365
#	169552
#	182472
#	196500
#	208616
#	218936
#	230712
#	245954
#	260463
#	271206
#	280435
#	288986
#	304255
#	317887
#
# Disc length: 4465 seconds
#
# Revision: 1
# Processed by: cddbd v1.4PL0 Copyright (c) Steve Scherf et al.
# Submitted via: CDmax 1.8
#
DISCID=61116f19
DTITLE=dylan/cash - sessions
DYEAR=1900
DGENRE=Country
TTITLE0=one too many mornings (18-feb-69)
TTITLE1=mountain  dew (18-feb-69)
TTITLE2=i still miss someone (18-feb-69)
TTITLE3=careless love (18-feb-69)
TTITLE4=matchbox on my clothes (18-feb-69)
TTITLE5=that's all right mama (18-feb-69)
TTITLE6=big river (18-feb-69)
TTITLE7=girl from the north country (18-feb-69)
TTITLE8=i walk the line (18-feb-69)
TTITLE9=you are my sunshine (18-feb-69)
TTITLE10=ring of fire (18-feb-69)
TTITLE11=things happen that way (18-feb-69)
TTITLE12=what the fuck (18-feb-69)
TTITLE13=i know you rider (18-feb-69)
TTITLE14=yodel (18-feb-69)
TTITLE15=i threw it all away (johnny cash show 01-may-69)
TTITLE16=living the blues  (johnny cash show 01-may-69)
TTITLE17=girl from the north country  (johnny cash show 01-may-69)
TTITLE18=nashville skyline rag (17-feb-69)
TTITLE19=i threw it all away (13-feb-69)
TTITLE20=peggy day (14-feb-69)
TTITLE21=country pie  (14-feb-69)
TTITLE22=tonight i'll be staying here with you (17-feb-69)
TTITLE23=yesterday (1-may-70)
TTITLE24=cupid (1-may-70)
EXTD=
EXTT0=
EXTT1=
EXTT2=
EXTT3=
EXTT4=
EXTT5=
EXTT6=
EXTT7=
EXTT8=
EXTT9=
EXTT10=
EXTT11=
EXTT12=
EXTT13=
EXTT14=
EXTT15=
EXTT16=
EXTT17=
EXTT18=
EXTT19=
EXTT20=
EXTT21=
EXTT22=
EXTT23=
EXTT24=
PLAYORDER=
